<svg width="142" height="40" viewBox="0 0 142 40" fill="none" xmlns="http://www.w3.org/2000/svg">
<path d="M29.9223 25.105C29.2223 25.105 28.5923 24.985 28.0323 24.745C27.4723 24.495 27.0323 24.145 26.7123 23.695C26.3923 23.245 26.2323 22.72 26.2323 22.12H28.0623C28.1023 22.57 28.2773 22.94 28.5873 23.23C28.9073 23.52 29.3523 23.665 29.9223 23.665C30.5123 23.665 30.9723 23.525 31.3023 23.245C31.6323 22.955 31.7973 22.585 31.7973 22.135C31.7973 21.785 31.6923 21.5 31.4823 21.28C31.2823 21.06 31.0273 20.89 30.7173 20.77C30.4173 20.65 29.9973 20.52 29.4573 20.38C28.7773 20.2 28.2223 20.02 27.7923 19.84C27.3723 19.65 27.0123 19.36 26.7123 18.97C26.4123 18.58 26.2623 18.06 26.2623 17.41C26.2623 16.81 26.4123 16.285 26.7123 15.835C27.0123 15.385 27.4323 15.04 27.9723 14.8C28.5123 14.56 29.1373 14.44 29.8473 14.44C30.8573 14.44 31.6823 14.695 32.3223 15.205C32.9723 15.705 33.3323 16.395 33.4023 17.275H31.5123C31.4823 16.895 31.3023 16.57 30.9723 16.3C30.6423 16.03 30.2073 15.895 29.6673 15.895C29.1773 15.895 28.7773 16.02 28.4673 16.27C28.1573 16.52 28.0023 16.88 28.0023 17.35C28.0023 17.67 28.0973 17.935 28.2873 18.145C28.4873 18.345 28.7373 18.505 29.0373 18.625C29.3373 18.745 29.7473 18.875 30.2673 19.015C30.9573 19.205 31.5173 19.395 31.9473 19.585C32.3873 19.775 32.7573 20.07 33.0573 20.47C33.3673 20.86 33.5223 21.385 33.5223 22.045C33.5223 22.575 33.3773 23.075 33.0873 23.545C32.8073 24.015 32.3923 24.395 31.8423 24.685C31.3023 24.965 30.6623 25.105 29.9223 25.105ZM43.115 20.665C43.115 20.975 43.095 21.255 43.055 21.505H36.74C36.79 22.165 37.035 22.695 37.475 23.095C37.915 23.495 38.455 23.695 39.095 23.695C40.015 23.695 40.665 23.31 41.045 22.54H42.89C42.64 23.3 42.185 23.925 41.525 24.415C40.875 24.895 40.065 25.135 39.095 25.135C38.305 25.135 37.595 24.96 36.965 24.61C36.345 24.25 35.855 23.75 35.495 23.11C35.145 22.46 34.97 21.71 34.97 20.86C34.97 20.01 35.14 19.265 35.48 18.625C35.83 17.975 36.315 17.475 36.935 17.125C37.565 16.775 38.285 16.6 39.095 16.6C39.875 16.6 40.57 16.77 41.18 17.11C41.79 17.45 42.265 17.93 42.605 18.55C42.945 19.16 43.115 19.865 43.115 20.665ZM41.33 20.125C41.32 19.495 41.095 18.99 40.655 18.61C40.215 18.23 39.67 18.04 39.02 18.04C38.43 18.04 37.925 18.23 37.505 18.61C37.085 18.98 36.835 19.485 36.755 20.125H41.33ZM52.3729 20.665C52.3729 20.975 52.3529 21.255 52.3129 21.505H45.9979C46.0479 22.165 46.2929 22.695 46.7329 23.095C47.1729 23.495 47.7129 23.695 48.3529 23.695C49.2729 23.695 49.9229 23.31 50.3029 22.54H52.1479C51.8979 23.3 51.4429 23.925 50.7829 24.415C50.1329 24.895 49.3229 25.135 48.3529 25.135C47.5629 25.135 46.8529 24.96 46.2229 24.61C45.6029 24.25 45.1129 23.75 44.7529 23.11C44.4029 22.46 44.2279 21.71 44.2279 20.86C44.2279 20.01 44.3979 19.265 44.7379 18.625C45.0879 17.975 45.5729 17.475 46.1929 17.125C46.8229 16.775 47.5429 16.6 48.3529 16.6C49.1329 16.6 49.8279 16.77 50.4379 17.11C51.0479 17.45 51.5229 17.93 51.8629 18.55C52.2029 19.16 52.3729 19.865 52.3729 20.665ZM50.5879 20.125C50.5779 19.495 50.3529 18.99 49.9129 18.61C49.4729 18.23 48.9279 18.04 48.2779 18.04C47.6879 18.04 47.1829 18.23 46.7629 18.61C46.3429 18.98 46.0929 19.485 46.0129 20.125H50.5879ZM59.6621 13.9V25H57.9521V13.9H59.6621ZM62.7772 15.64C62.4672 15.64 62.2072 15.535 61.9972 15.325C61.7872 15.115 61.6822 14.855 61.6822 14.545C61.6822 14.235 61.7872 13.975 61.9972 13.765C62.2072 13.555 62.4672 13.45 62.7772 13.45C63.0772 13.45 63.3322 13.555 63.5422 13.765C63.7522 13.975 63.8572 14.235 63.8572 14.545C63.8572 14.855 63.7522 15.115 63.5422 15.325C63.3322 15.535 63.0772 15.64 62.7772 15.64ZM63.6172 16.735V25H61.9072V16.735H63.6172ZM69.0573 23.47L71.3973 16.735H73.2123L70.0623 25H68.0223L64.8873 16.735H66.7173L69.0573 23.47ZM82.0799 20.665C82.0799 20.975 82.0599 21.255 82.0199 21.505H75.7049C75.7549 22.165 75.9999 22.695 76.4399 23.095C76.8799 23.495 77.4199 23.695 78.0599 23.695C78.9799 23.695 79.6299 23.31 80.0099 22.54H81.8549C81.6049 23.3 81.1499 23.925 80.4899 24.415C79.8399 24.895 79.0299 25.135 78.0599 25.135C77.2699 25.135 76.5599 24.96 75.9299 24.61C75.3099 24.25 74.8199 23.75 74.4599 23.11C74.1099 22.46 73.9349 21.71 73.9349 20.86C73.9349 20.01 74.1049 19.265 74.4449 18.625C74.7949 17.975 75.2799 17.475 75.8999 17.125C76.5299 16.775 77.2499 16.6 78.0599 16.6C78.8399 16.6 79.5349 16.77 80.1449 17.11C80.7549 17.45 81.2299 17.93 81.5699 18.55C81.9099 19.16 82.0799 19.865 82.0799 20.665ZM80.2949 20.125C80.2849 19.495 80.0599 18.99 79.6199 18.61C79.1799 18.23 78.6349 18.04 77.9849 18.04C77.3949 18.04 76.8899 18.23 76.4699 18.61C76.0499 18.98 75.7999 19.485 75.7199 20.125H80.2949Z" fill="#396DF2"/>
<path fill-rule="evenodd" clip-rule="evenodd" d="M98 20C98 16.134 101.134 13 105 13C105.552 13 106 12.5523 106 12C106 11.4477 105.552 11 105 11C100.029 11 96 15.0294 96 20C96 24.9706 100.029 29 105 29C109.971 29 114 24.9706 114 20C114 19.4477 113.552 19 113 19C112.448 19 112 19.4477 112 20C112 23.866 108.866 27 105 27C101.134 27 98 23.866 98 20ZM109 11C108.448 11 108 11.4477 108 12C108 12.5523 108.448 13 109 13H110.586L104.293 19.2929C103.902 19.6834 103.902 20.3166 104.293 20.7071C104.683 21.0976 105.317 21.0976 105.707 20.7071L112 14.4142V16C112 16.5523 112.448 17 113 17C113.552 17 114 16.5523 114 16V12C114 11.4477 113.552 11 113 11H109Z" fill="#6070FF"/>
<rect x="0.5" y="0.5" width="141" height="39" rx="7.5" stroke="#6070FF"/>
</svg>
