<svg width="141" height="40" viewBox="0 0 141 40" fill="none" xmlns="http://www.w3.org/2000/svg">
<path d="M16.6635 25.105C15.9635 25.105 15.3335 24.985 14.7735 24.745C14.2135 24.495 13.7735 24.145 13.4535 23.695C13.1335 23.245 12.9735 22.72 12.9735 22.12H14.8035C14.8435 22.57 15.0185 22.94 15.3285 23.23C15.6485 23.52 16.0935 23.665 16.6635 23.665C17.2535 23.665 17.7135 23.525 18.0435 23.245C18.3735 22.955 18.5385 22.585 18.5385 22.135C18.5385 21.785 18.4335 21.5 18.2235 21.28C18.0235 21.06 17.7685 20.89 17.4585 20.77C17.1585 20.65 16.7385 20.52 16.1985 20.38C15.5185 20.2 14.9635 20.02 14.5335 19.84C14.1135 19.65 13.7535 19.36 13.4535 18.97C13.1535 18.58 13.0035 18.06 13.0035 17.41C13.0035 16.81 13.1535 16.285 13.4535 15.835C13.7535 15.385 14.1735 15.04 14.7135 14.8C15.2535 14.56 15.8785 14.44 16.5885 14.44C17.5985 14.44 18.4235 14.695 19.0635 15.205C19.7135 15.705 20.0735 16.395 20.1435 17.275H18.2535C18.2235 16.895 18.0435 16.57 17.7135 16.3C17.3835 16.03 16.9485 15.895 16.4085 15.895C15.9185 15.895 15.5185 16.02 15.2085 16.27C14.8985 16.52 14.7435 16.88 14.7435 17.35C14.7435 17.67 14.8385 17.935 15.0285 18.145C15.2285 18.345 15.4785 18.505 15.7785 18.625C16.0785 18.745 16.4885 18.875 17.0085 19.015C17.6985 19.205 18.2585 19.395 18.6885 19.585C19.1285 19.775 19.4985 20.07 19.7985 20.47C20.1085 20.86 20.2635 21.385 20.2635 22.045C20.2635 22.575 20.1185 23.075 19.8285 23.545C19.5485 24.015 19.1335 24.395 18.5835 24.685C18.0435 24.965 17.4035 25.105 16.6635 25.105ZM29.8563 20.665C29.8563 20.975 29.8363 21.255 29.7963 21.505H23.4813C23.5313 22.165 23.7763 22.695 24.2163 23.095C24.6563 23.495 25.1963 23.695 25.8363 23.695C26.7563 23.695 27.4063 23.31 27.7863 22.54H29.6312C29.3813 23.3 28.9263 23.925 28.2663 24.415C27.6163 24.895 26.8063 25.135 25.8363 25.135C25.0463 25.135 24.3363 24.96 23.7063 24.61C23.0863 24.25 22.5963 23.75 22.2363 23.11C21.8863 22.46 21.7113 21.71 21.7113 20.86C21.7113 20.01 21.8813 19.265 22.2213 18.625C22.5713 17.975 23.0563 17.475 23.6763 17.125C24.3063 16.775 25.0263 16.6 25.8363 16.6C26.6163 16.6 27.3113 16.77 27.9213 17.11C28.5313 17.45 29.0063 17.93 29.3463 18.55C29.6863 19.16 29.8563 19.865 29.8563 20.665ZM28.0713 20.125C28.0613 19.495 27.8363 18.99 27.3963 18.61C26.9563 18.23 26.4113 18.04 25.7613 18.04C25.1713 18.04 24.6663 18.23 24.2463 18.61C23.8263 18.98 23.5763 19.485 23.4963 20.125H28.0713ZM39.1141 20.665C39.1141 20.975 39.0941 21.255 39.0541 21.505H32.7391C32.7891 22.165 33.0341 22.695 33.4741 23.095C33.9141 23.495 34.4541 23.695 35.0941 23.695C36.0141 23.695 36.6641 23.31 37.0441 22.54H38.8891C38.6391 23.3 38.1841 23.925 37.5241 24.415C36.8741 24.895 36.0641 25.135 35.0941 25.135C34.3041 25.135 33.5941 24.96 32.9641 24.61C32.3441 24.25 31.8541 23.75 31.4941 23.11C31.1441 22.46 30.9691 21.71 30.9691 20.86C30.9691 20.01 31.1391 19.265 31.4791 18.625C31.8291 17.975 32.3141 17.475 32.9341 17.125C33.5641 16.775 34.2841 16.6 35.0941 16.6C35.8741 16.6 36.5691 16.77 37.1791 17.11C37.7891 17.45 38.2641 17.93 38.6041 18.55C38.9441 19.16 39.1141 19.865 39.1141 20.665ZM37.3291 20.125C37.3191 19.495 37.0941 18.99 36.6541 18.61C36.2141 18.23 35.6691 18.04 35.0191 18.04C34.4291 18.04 33.9241 18.23 33.5041 18.61C33.0841 18.98 32.8341 19.485 32.7541 20.125H37.3291ZM47.6934 25.135C47.0434 25.135 46.4584 25.02 45.9384 24.79C45.4284 24.55 45.0234 24.23 44.7234 23.83C44.4234 23.42 44.2634 22.965 44.2434 22.465H46.0134C46.0434 22.815 46.2084 23.11 46.5084 23.35C46.8184 23.58 47.2034 23.695 47.6634 23.695C48.1434 23.695 48.5134 23.605 48.7734 23.425C49.0434 23.235 49.1784 22.995 49.1784 22.705C49.1784 22.395 49.0284 22.165 48.7284 22.015C48.4384 21.865 47.9734 21.7 47.3334 21.52C46.7134 21.35 46.2084 21.185 45.8184 21.025C45.4284 20.865 45.0884 20.62 44.7984 20.29C44.5184 19.96 44.3784 19.525 44.3784 18.985C44.3784 18.545 44.5084 18.145 44.7684 17.785C45.0284 17.415 45.3984 17.125 45.8784 16.915C46.3684 16.705 46.9284 16.6 47.5584 16.6C48.4984 16.6 49.2534 16.84 49.8234 17.32C50.4034 17.79 50.7134 18.435 50.7534 19.255H49.0434C49.0134 18.885 48.8634 18.59 48.5934 18.37C48.3234 18.15 47.9584 18.04 47.4984 18.04C47.0484 18.04 46.7034 18.125 46.4634 18.295C46.2234 18.465 46.1034 18.69 46.1034 18.97C46.1034 19.19 46.1834 19.375 46.3434 19.525C46.5034 19.675 46.6984 19.795 46.9284 19.885C47.1584 19.965 47.4984 20.07 47.9484 20.2C48.5484 20.36 49.0384 20.525 49.4184 20.695C49.8084 20.855 50.1434 21.095 50.4234 21.415C50.7034 21.735 50.8484 22.16 50.8584 22.69C50.8584 23.16 50.7284 23.58 50.4684 23.95C50.2084 24.32 49.8384 24.61 49.3584 24.82C48.8884 25.03 48.3334 25.135 47.6934 25.135ZM56.2911 25.135C55.5111 25.135 54.8061 24.96 54.1761 24.61C53.5461 24.25 53.0511 23.75 52.6911 23.11C52.3311 22.46 52.1511 21.71 52.1511 20.86C52.1511 20.02 52.3361 19.275 52.7061 18.625C53.0761 17.975 53.5811 17.475 54.2211 17.125C54.8611 16.775 55.5761 16.6 56.3661 16.6C57.1561 16.6 57.8711 16.775 58.5111 17.125C59.1511 17.475 59.6561 17.975 60.0261 18.625C60.3961 19.275 60.5811 20.02 60.5811 20.86C60.5811 21.7 60.3911 22.445 60.0111 23.095C59.6311 23.745 59.1111 24.25 58.4511 24.61C57.8011 24.96 57.0811 25.135 56.2911 25.135ZM56.2911 23.65C56.7311 23.65 57.1411 23.545 57.5211 23.335C57.9111 23.125 58.2261 22.81 58.4661 22.39C58.7061 21.97 58.8261 21.46 58.8261 20.86C58.8261 20.26 58.7111 19.755 58.4811 19.345C58.2511 18.925 57.9461 18.61 57.5661 18.4C57.1861 18.19 56.7761 18.085 56.3361 18.085C55.8961 18.085 55.4861 18.19 55.1061 18.4C54.7361 18.61 54.4411 18.925 54.2211 19.345C54.0011 19.755 53.8911 20.26 53.8911 20.86C53.8911 21.75 54.1161 22.44 54.5661 22.93C55.0261 23.41 55.6011 23.65 56.2911 23.65ZM69.7565 16.735V25H68.0465V24.025C67.7765 24.365 67.4215 24.635 66.9815 24.835C66.5515 25.025 66.0915 25.12 65.6015 25.12C64.9515 25.12 64.3665 24.985 63.8465 24.715C63.3365 24.445 62.9315 24.045 62.6315 23.515C62.3415 22.985 62.1965 22.345 62.1965 21.595V16.735H63.8915V21.34C63.8915 22.08 64.0765 22.65 64.4465 23.05C64.8165 23.44 65.3215 23.635 65.9615 23.635C66.6015 23.635 67.1065 23.44 67.4765 23.05C67.8565 22.65 68.0465 22.08 68.0465 21.34V16.735H69.7565ZM73.7227 17.935C73.9727 17.515 74.3027 17.19 74.7127 16.96C75.1327 16.72 75.6277 16.6 76.1977 16.6V18.37H75.7627C75.0927 18.37 74.5827 18.54 74.2327 18.88C73.8927 19.22 73.7227 19.81 73.7227 20.65V25H72.0127V16.735H73.7227V17.935ZM77.1995 20.86C77.1995 20.01 77.3695 19.265 77.7095 18.625C78.0595 17.975 78.5395 17.475 79.1495 17.125C79.7595 16.775 80.4595 16.6 81.2495 16.6C82.2495 16.6 83.0745 16.84 83.7245 17.32C84.3845 17.79 84.8295 18.465 85.0595 19.345H83.2145C83.0645 18.935 82.8245 18.615 82.4945 18.385C82.1645 18.155 81.7495 18.04 81.2495 18.04C80.5495 18.04 79.9895 18.29 79.5695 18.79C79.1595 19.28 78.9545 19.97 78.9545 20.86C78.9545 21.75 79.1595 22.445 79.5695 22.945C79.9895 23.445 80.5495 23.695 81.2495 23.695C82.2395 23.695 82.8945 23.26 83.2145 22.39H85.0595C84.8195 23.23 84.3695 23.9 83.7095 24.4C83.0495 24.89 82.2295 25.135 81.2495 25.135C80.4595 25.135 79.7595 24.96 79.1495 24.61C78.5395 24.25 78.0595 23.75 77.7095 23.11C77.3695 22.46 77.1995 21.71 77.1995 20.86ZM94.3387 20.665C94.3387 20.975 94.3187 21.255 94.2787 21.505H87.9637C88.0137 22.165 88.2587 22.695 88.6987 23.095C89.1387 23.495 89.6787 23.695 90.3187 23.695C91.2387 23.695 91.8887 23.31 92.2687 22.54H94.1137C93.8637 23.3 93.4087 23.925 92.7487 24.415C92.0987 24.895 91.2887 25.135 90.3187 25.135C89.5287 25.135 88.8187 24.96 88.1887 24.61C87.5687 24.25 87.0787 23.75 86.7187 23.11C86.3687 22.46 86.1937 21.71 86.1937 20.86C86.1937 20.01 86.3637 19.265 86.7037 18.625C87.0537 17.975 87.5387 17.475 88.1587 17.125C88.7887 16.775 89.5087 16.6 90.3187 16.6C91.0987 16.6 91.7937 16.77 92.4037 17.11C93.0137 17.45 93.4887 17.93 93.8287 18.55C94.1687 19.16 94.3387 19.865 94.3387 20.665ZM92.5537 20.125C92.5437 19.495 92.3187 18.99 91.8787 18.61C91.4387 18.23 90.8937 18.04 90.2437 18.04C89.6537 18.04 89.1487 18.23 88.7287 18.61C88.3087 18.98 88.0587 19.485 87.9787 20.125H92.5537Z" fill="#6070FF"/>
<g clip-path="url(#clip0_34_1257)">
<g clip-path="url(#clip1_34_1257)">
<path d="M125.999 17.4611C125.999 16.3212 125.633 15.2504 124.934 14.3178C125.2 13.4197 125.267 12.2798 125.2 10.9672C125.167 10.4145 124.735 10 124.202 10C123.903 10 121.374 10.0345 119.91 11.3817C118.646 11.1399 117.315 11.1399 116.017 11.3817C114.587 10.0345 112.058 10 111.725 10C111.193 10 110.76 10.4145 110.727 10.9672C110.627 12.2798 110.727 13.4197 110.993 14.3178C110.295 15.285 109.929 16.3558 109.929 17.4611C109.929 19.8791 111.725 22.0553 114.454 23.0915C114.354 23.2988 114.287 23.5406 114.221 23.7824C111.326 23.4715 109.962 20.7427 109.895 20.639C109.662 20.1209 109.064 19.9136 108.564 20.19C108.065 20.4318 107.866 21.0535 108.132 21.5717C108.199 21.7444 110.028 25.4404 114.054 25.8549V28.9637C114.054 29.5509 114.487 30 115.052 30H120.875C121.441 30 121.873 29.5509 121.873 28.9637V24.8532C121.873 24.2314 121.74 23.6442 121.507 23.1261C124.202 22.0553 125.999 19.9136 125.999 17.4611Z" fill="#6070FF"/>
</g>
</g>
<rect x="0.5" y="0.5" width="140" height="39" rx="7.5" stroke="#6070FF"/>
<defs>
<clipPath id="clip0_34_1257">
<rect width="18" height="20" fill="white" transform="translate(108 10)"/>
</clipPath>
<clipPath id="clip1_34_1257">
<rect width="18" height="20" fill="white" transform="translate(108 10)"/>
</clipPath>
</defs>
</svg>
